<svg xmlns="http://www.w3.org/2000/svg" width="390" height="844" viewBox="0 0 390 844">
  <rect width="390" height="844" fill="#0E1319"/>
  <rect x="18" y="42" width="354" height="760" rx="18" fill="#121A24" stroke="#27313C"/>

  <text x="40" y="78" fill="#D7DEE5" font-family="JetBrains Mono, monospace" font-size="22" font-weight="800">‹</text>
  <text x="74" y="78" fill="#E7EDF2" font-family="JetBrains Mono, monospace" font-size="18" font-weight="800">通话模式</text>
  <rect x="302" y="55" width="42" height="28" rx="8" fill="#0F151B" stroke="#31404D"/>
  <text x="316" y="74" fill="#9AA9B8" font-family="JetBrains Mono, monospace" font-size="13">字幕</text>

  <rect x="34" y="104" width="322" height="82" rx="8" fill="#0E1319" stroke="#31404D"/>
  <circle cx="68" cy="145" r="12" fill="#A3FF12"/>
  <line x1="82" y1="145" x2="150" y2="145" stroke="#31404D" stroke-width="2"/>
  <circle cx="164" cy="145" r="12" fill="#151B22" stroke="#6EC7FF" stroke-width="2"/>
  <line x1="178" y1="145" x2="246" y2="145" stroke="#31404D" stroke-width="2"/>
  <circle cx="260" cy="145" r="12" fill="#151B22" stroke="#31404D" stroke-width="2"/>
  <text x="46" y="174" fill="#E7EDF2" font-family="JetBrains Mono, monospace" font-size="10" font-weight="800">听</text>
  <text x="144" y="174" fill="#6EC7FF" font-family="JetBrains Mono, monospace" font-size="10" font-weight="800">想</text>
  <text x="240" y="174" fill="#7F92A3" font-family="JetBrains Mono, monospace" font-size="10" font-weight="800">说</text>
  <text x="288" y="149" fill="#9AA9B8" font-family="JetBrains Mono, monospace" font-size="11">本轮进度</text>

  <rect x="34" y="216" width="322" height="330" rx="12" fill="#151B22" stroke="#31404D"/>
  <circle cx="195" cy="332" r="74" fill="#0F151B" stroke="#27313C" stroke-width="2"/>
  <path d="M130 332 C146 300 162 364 178 332 C194 300 210 364 226 332 C242 300 258 364 274 332" fill="none" stroke="#6EC7FF" stroke-width="4" stroke-linecap="round"/>
  <path d="M126 414 L126 250" stroke="#27313C" stroke-width="1"/>
  <path d="M264 414 L264 250" stroke="#27313C" stroke-width="1"/>
  <text x="76" y="464" fill="#E7EDF2" font-family="JetBrains Mono, monospace" font-size="18" font-weight="800">正在处理你的问题</text>
  <text x="72" y="492" fill="#9AA9B8" font-family="JetBrains Mono, monospace" font-size="12">AI 运行时显示阶段，不再显示输入框</text>

  <rect x="34" y="568" width="322" height="78" rx="8" fill="#291C12" stroke="#A05A1B"/>
  <text x="52" y="594" fill="#FFD9A8" font-family="JetBrains Mono, monospace" font-size="12" font-weight="800">需要授权时：通话页只做提醒</text>
  <text x="52" y="616" fill="#E8C9A2" font-family="JetBrains Mono, monospace" font-size="11">详细命令与按钮回到会话页处理，避免误触</text>
  <rect x="252" y="604" width="78" height="28" rx="8" fill="#A3FF12"/>
  <text x="270" y="623" fill="#09110A" font-family="JetBrains Mono, monospace" font-size="11" font-weight="800">查看</text>

  <rect x="66" y="704" width="54" height="54" rx="16" fill="#151B22" stroke="#31404D"/>
  <text x="84" y="738" fill="#D7DEE5" font-family="JetBrains Mono, monospace" font-size="20">▤</text>
  <rect x="154" y="696" width="82" height="62" rx="18" fill="#351618" stroke="#77313A"/>
  <text x="178" y="735" fill="#FF7A7A" font-family="JetBrains Mono, monospace" font-size="18" font-weight="800">停止</text>
  <rect x="270" y="704" width="54" height="54" rx="16" fill="#151B22" stroke="#31404D"/>
  <text x="286" y="738" fill="#D7DEE5" font-family="JetBrains Mono, monospace" font-size="20">✕</text>

  <text x="34" y="832" fill="#7F92A3" font-family="JetBrains Mono, monospace" font-size="10">方案 C · 通话页阶段轴：状态稳定、适合长任务</text>
</svg>
