<svg xmlns="http://www.w3.org/2000/svg" width="390" height="844" viewBox="0 0 390 844">
  <rect width="390" height="844" fill="#0E1319"/>
  <rect x="0" y="0" width="390" height="844" fill="#17181D"/>
  <rect x="18" y="42" width="354" height="760" rx="18" fill="#0E1319" stroke="#27313C"/>

  <text x="42" y="82" fill="#D7DEE5" font-family="JetBrains Mono, monospace" font-size="22" font-weight="800">‹</text>
  <text x="72" y="82" fill="#E7EDF2" font-family="JetBrains Mono, monospace" font-size="18" font-weight="800">连续语音开发</text>
  <rect x="316" y="54" width="34" height="34" rx="8" fill="#A3FF12"/>
  <path d="M326 72 C326 66 331 62 336 65 C339 67 340 71 339 75 C337 80 331 82 327 78" fill="none" stroke="#09110A" stroke-width="2.4" stroke-linecap="round"/>

  <rect x="34" y="108" width="322" height="74" rx="8" fill="#151B22" stroke="#31404D"/>
  <rect x="50" y="126" width="72" height="24" rx="12" fill="#102C3A" stroke="#357DA4"/>
  <circle cx="65" cy="138" r="4" fill="#6EC7FF"/>
  <text x="76" y="143" fill="#E7EDF2" font-family="JetBrains Mono, monospace" font-size="11" font-weight="700">通话中</text>
  <rect x="132" y="126" width="86" height="24" rx="12" fill="#132018" stroke="#285641"/>
  <text x="148" y="143" fill="#E5FFF1" font-family="JetBrains Mono, monospace" font-size="11" font-weight="700">实时转写</text>
  <text x="50" y="166" fill="#9AA9B8" font-family="JetBrains Mono, monospace" font-size="12">正在听你说话，AI 回复会自动播报</text>
  <text x="306" y="150" fill="#A3FF12" font-family="JetBrains Mono, monospace" font-size="12" font-weight="800">进入</text>

  <rect x="34" y="204" width="250" height="82" rx="10" fill="#0F151B" stroke="#27313C"/>
  <text x="52" y="231" fill="#E7EDF2" font-family="JetBrains Mono, monospace" font-size="13">我已经把实时 ASR 接上了，</text>
  <text x="52" y="253" fill="#E7EDF2" font-family="JetBrains Mono, monospace" font-size="13">但通话页状态还不够直观。</text>
  <rect x="98" y="308" width="258" height="98" rx="10" fill="#006CFF"/>
  <text x="118" y="336" fill="#FFFFFF" font-family="JetBrains Mono, monospace" font-size="13">优先看状态表达。</text>
  <text x="118" y="358" fill="#FFFFFF" font-family="JetBrains Mono, monospace" font-size="13">哪些放会话页，哪些放通话页？</text>

  <rect x="34" y="426" width="322" height="58" rx="8" fill="#291C12" stroke="#A05A1B"/>
  <text x="52" y="449" fill="#FFD9A8" font-family="JetBrains Mono, monospace" font-size="12" font-weight="800">权限请求等待处理</text>
  <text x="52" y="470" fill="#E8C9A2" font-family="JetBrains Mono, monospace" font-size="11">这里留在会话页：需要读命令、确认或拒绝</text>

  <rect x="34" y="514" width="286" height="96" rx="10" fill="#0F151B" stroke="#27313C"/>
  <text x="52" y="542" fill="#E7EDF2" font-family="JetBrains Mono, monospace" font-size="13">建议：会话页只承载“需要行动”</text>
  <text x="52" y="564" fill="#E7EDF2" font-family="JetBrains Mono, monospace" font-size="13">和“可恢复上下文”的状态。</text>
  <rect x="52" y="582" width="92" height="22" rx="11" fill="#151B22" stroke="#31404D"/>
  <text x="66" y="597" fill="#9AA9B8" font-family="JetBrains Mono, monospace" font-size="10">错误/审批</text>

  <rect x="18" y="698" width="354" height="104" fill="#0E1319" stroke="#27313C"/>
  <rect x="34" y="716" width="322" height="46" rx="8" fill="#141B22" stroke="#31404D"/>
  <text x="50" y="744" fill="#748292" font-family="JetBrains Mono, monospace" font-size="12">输入消息...</text>
  <rect x="34" y="774" width="152" height="42" rx="8" fill="#0F151B" stroke="#31404D"/>
  <text x="78" y="800" fill="#D7DEE5" font-family="JetBrains Mono, monospace" font-size="12" font-weight="800">语音输入</text>
  <rect x="204" y="774" width="152" height="42" rx="8" fill="#A3FF12"/>
  <text x="262" y="800" fill="#09110A" font-family="JetBrains Mono, monospace" font-size="12" font-weight="800">发送</text>

  <text x="34" y="832" fill="#7F92A3" font-family="JetBrains Mono, monospace" font-size="10">方案 A · 会话页顶部状态条：轻量、可回到上下文</text>
</svg>
