<svg xmlns="http://www.w3.org/2000/svg" width="390" height="844" viewBox="0 0 390 844">
  <defs>
    <linearGradient id="bg" x1="0" y1="0" x2="0" y2="1">
      <stop offset="0" stop-color="#10161D"/>
      <stop offset="1" stop-color="#070A0E"/>
    </linearGradient>
    <linearGradient id="left" x1="0" y1="0" x2="1" y2="1">
      <stop offset="0" stop-color="#143249"/>
      <stop offset="1" stop-color="#0F151B"/>
    </linearGradient>
    <linearGradient id="right" x1="0" y1="0" x2="1" y2="1">
      <stop offset="0" stop-color="#1B2F12"/>
      <stop offset="1" stop-color="#0F151B"/>
    </linearGradient>
  </defs>
  <rect width="390" height="844" fill="url(#bg)"/>

  <text x="32" y="72" fill="#D7DEE5" font-family="JetBrains Mono, monospace" font-size="24" font-weight="800">‹</text>
  <text x="72" y="72" fill="#E7EDF2" font-family="JetBrains Mono, monospace" font-size="18" font-weight="800">通话模式</text>
  <rect x="280" y="48" width="76" height="34" rx="11" fill="#141B22" stroke="#31404D"/>
  <text x="298" y="69" fill="#9AA9B8" font-family="JetBrains Mono, monospace" font-size="11" font-weight="800">双工</text>

  <rect x="28" y="106" width="160" height="470" rx="24" fill="url(#left)" stroke="#31404D"/>
  <rect x="202" y="106" width="160" height="470" rx="24" fill="url(#right)" stroke="#31404D"/>

  <text x="48" y="146" fill="#6EC7FF" font-family="JetBrains Mono, monospace" font-size="11" font-weight="900">YOU</text>
  <text x="222" y="146" fill="#A3FF12" font-family="JetBrains Mono, monospace" font-size="11" font-weight="900">AI</text>
  <text x="48" y="174" fill="#E7EDF2" font-family="JetBrains Mono, monospace" font-size="22" font-weight="900">正在说</text>
  <text x="222" y="174" fill="#E7EDF2" font-family="JetBrains Mono, monospace" font-size="22" font-weight="900">可打断</text>

  <g stroke-linecap="round" stroke-width="8">
    <path d="M56 318 C68 250 78 386 90 318 C102 250 112 386 124 318 C136 250 146 386 158 318" fill="none" stroke="#6EC7FF"/>
    <path d="M232 318 C242 288 252 348 262 318 C272 288 282 348 292 318 C302 288 312 348 322 318" fill="none" stroke="#A3FF12" opacity="0.62"/>
  </g>

  <rect x="48" y="414" width="118" height="96" rx="14" fill="#0E1319" opacity="0.72" stroke="#357DA4"/>
  <text x="62" y="444" fill="#D7DEE5" font-family="JetBrains Mono, monospace" font-size="12" font-weight="800">正在捕获</text>
  <text x="62" y="468" fill="#9AA9B8" font-family="JetBrains Mono, monospace" font-size="10">实时字幕流入</text>
  <text x="62" y="490" fill="#9AA9B8" font-family="JetBrains Mono, monospace" font-size="10">停顿后提交</text>

  <rect x="222" y="414" width="118" height="96" rx="14" fill="#0E1319" opacity="0.72" stroke="#285641"/>
  <text x="236" y="444" fill="#D7DEE5" font-family="JetBrains Mono, monospace" font-size="12" font-weight="800">播报可中断</text>
  <text x="236" y="468" fill="#9AA9B8" font-family="JetBrains Mono, monospace" font-size="10">开口即停止 TTS</text>
  <text x="236" y="490" fill="#9AA9B8" font-family="JetBrains Mono, monospace" font-size="10">进入新一轮</text>

  <rect x="28" y="606" width="334" height="76" rx="16" fill="#151B22" stroke="#31404D"/>
  <text x="50" y="636" fill="#E7EDF2" font-family="JetBrains Mono, monospace" font-size="15" font-weight="900">视觉重点：把“你”和“AI”分成两路信号</text>
  <text x="50" y="662" fill="#9AA9B8" font-family="JetBrains Mono, monospace" font-size="11">适合表达打断、半双工/双工、谁在占用声道</text>

  <rect x="32" y="724" width="326" height="58" rx="20" fill="#0F151B" stroke="#31404D"/>
  <rect x="54" y="738" width="42" height="32" rx="10" fill="#151B22" stroke="#31404D"/>
  <text x="67" y="759" fill="#D7DEE5" font-family="JetBrains Mono, monospace" font-size="15">▤</text>
  <rect x="124" y="730" width="142" height="46" rx="17" fill="#A3FF12"/>
  <text x="157" y="758" fill="#09110A" font-family="JetBrains Mono, monospace" font-size="13" font-weight="900">停止捕获</text>
  <rect x="294" y="738" width="42" height="32" rx="10" fill="#371719" stroke="#77313A"/>
  <text x="307" y="759" fill="#FF7A7A" font-family="JetBrains Mono, monospace" font-size="15">✕</text>

  <text x="35" y="828" fill="#7F92A3" font-family="JetBrains Mono, monospace" font-size="10">V2-2 · 双通道声波。Flutter: Row + Animated CustomPaint</text>
</svg>
