<svg xmlns="http://www.w3.org/2000/svg" width="390" height="844" viewBox="0 0 390 844">
  <defs>
    <linearGradient id="bg" x1="0" y1="0" x2="1" y2="1">
      <stop offset="0" stop-color="#07131B"/>
      <stop offset="0.55" stop-color="#0E1319"/>
      <stop offset="1" stop-color="#14151B"/>
    </linearGradient>
    <radialGradient id="beam" cx="50%" cy="42%" r="55%">
      <stop offset="0" stop-color="#A3FF12" stop-opacity="0.38"/>
      <stop offset="0.36" stop-color="#6EC7FF" stop-opacity="0.18"/>
      <stop offset="1" stop-color="#0E1319" stop-opacity="0"/>
    </radialGradient>
    <linearGradient id="glass" x1="0" y1="0" x2="1" y2="1">
      <stop offset="0" stop-color="#1D2B36" stop-opacity="0.86"/>
      <stop offset="1" stop-color="#111821" stop-opacity="0.92"/>
    </linearGradient>
  </defs>
  <rect width="390" height="844" fill="url(#bg)"/>
  <rect width="390" height="844" fill="url(#beam)"/>

  <g opacity="0.26" stroke="#27313C" stroke-width="1">
    <path d="M28 144 H362"/>
    <path d="M28 218 H362"/>
    <path d="M28 292 H362"/>
    <path d="M28 366 H362"/>
    <path d="M28 440 H362"/>
    <path d="M28 514 H362"/>
    <path d="M58 96 V626"/>
    <path d="M126 96 V626"/>
    <path d="M194 96 V626"/>
    <path d="M262 96 V626"/>
    <path d="M330 96 V626"/>
  </g>

  <text x="32" y="72" fill="#D7DEE5" font-family="JetBrains Mono, monospace" font-size="24" font-weight="800">‹</text>
  <text x="72" y="72" fill="#E7EDF2" font-family="JetBrains Mono, monospace" font-size="18" font-weight="800">Voice Console</text>
  <rect x="276" y="48" width="82" height="34" rx="17" fill="#0F151B" stroke="#A3FF12"/>
  <circle cx="294" cy="65" r="5" fill="#A3FF12"/>
  <text x="308" y="69" fill="#E7EDF2" font-family="JetBrains Mono, monospace" font-size="11" font-weight="800">LIVE</text>

  <text x="38" y="132" fill="#7F92A3" font-family="JetBrains Mono, monospace" font-size="10" font-weight="800">CURRENT STATE</text>
  <text x="38" y="166" fill="#E7EDF2" font-family="JetBrains Mono, monospace" font-size="34" font-weight="900">正在听</text>
  <text x="38" y="193" fill="#9AA9B8" font-family="JetBrains Mono, monospace" font-size="12">停顿 0.7s 后自动提交 · 可随时打断播报</text>

  <g transform="translate(195 356)">
    <circle r="126" fill="#0F151B" opacity="0.78" stroke="#31404D" stroke-width="1.4"/>
    <circle r="96" fill="none" stroke="#A3FF12" stroke-width="1.4" opacity="0.62"/>
    <circle r="68" fill="none" stroke="#6EC7FF" stroke-width="1.2" opacity="0.52"/>
    <circle r="34" fill="#A3FF12"/>
    <path d="M-115 0 C-98 -40 -82 40 -65 0 C-48 -40 -32 40 -15 0 C2 -40 18 40 35 0 C52 -40 68 40 85 0 C102 -40 118 40 132 0" fill="none" stroke="#E7EDF2" stroke-width="5" stroke-linecap="round"/>
    <path d="M-112 38 C-86 72 -44 90 0 90 C44 90 86 72 112 38" fill="none" stroke="#A78BFA" stroke-width="4" stroke-linecap="round" opacity="0.8"/>
    <path d="M-112 -38 C-86 -72 -44 -90 0 -90 C44 -90 86 -72 112 -38" fill="none" stroke="#6EC7FF" stroke-width="4" stroke-linecap="round" opacity="0.6"/>
  </g>

  <rect x="30" y="540" width="330" height="112" rx="18" fill="url(#glass)" stroke="#31404D"/>
  <text x="52" y="573" fill="#6EC7FF" font-family="JetBrains Mono, monospace" font-size="11" font-weight="800">REALTIME TRANSCRIPT</text>
  <text x="52" y="604" fill="#E7EDF2" font-family="JetBrains Mono, monospace" font-size="17" font-weight="800">我想把通话状态做得更明显，</text>
  <text x="52" y="631" fill="#E7EDF2" font-family="JetBrains Mono, monospace" font-size="17" font-weight="800">最好一眼就知道现在在听。</text>

  <rect x="28" y="696" width="334" height="86" rx="24" fill="#111821" stroke="#31404D"/>
  <rect x="52" y="718" width="46" height="46" rx="15" fill="#151B22" stroke="#31404D"/>
  <text x="67" y="747" fill="#D7DEE5" font-family="JetBrains Mono, monospace" font-size="18">▤</text>
  <rect x="132" y="704" width="126" height="62" rx="22" fill="#A3FF12"/>
  <text x="166" y="742" fill="#09110A" font-family="JetBrains Mono, monospace" font-size="15" font-weight="900">Listening</text>
  <rect x="292" y="718" width="46" height="46" rx="15" fill="#371719" stroke="#77313A"/>
  <text x="308" y="747" fill="#FF7A7A" font-family="JetBrains Mono, monospace" font-size="18">✕</text>

  <text x="35" y="828" fill="#7F92A3" font-family="JetBrains Mono, monospace" font-size="10">V2-1 · 主推：声场舞台。Flutter: Stack + CustomPainter + BackdropFilter</text>
</svg>
