<svg xmlns="http://www.w3.org/2000/svg" width="390" height="844" viewBox="0 0 390 844">
  <defs>
    <linearGradient id="bg" x1="0" y1="0" x2="0" y2="1">
      <stop offset="0" stop-color="#F7F9FC"/>
      <stop offset="0.58" stop-color="#EEF4F5"/>
      <stop offset="1" stop-color="#E8EAF2"/>
    </linearGradient>
    <radialGradient id="a1" cx="22%" cy="18%" r="48%">
      <stop offset="0" stop-color="#9EE6FF" stop-opacity="0.76"/>
      <stop offset="1" stop-color="#9EE6FF" stop-opacity="0"/>
    </radialGradient>
    <radialGradient id="a2" cx="84%" cy="35%" r="46%">
      <stop offset="0" stop-color="#B7FF52" stop-opacity="0.72"/>
      <stop offset="1" stop-color="#B7FF52" stop-opacity="0"/>
    </radialGradient>
    <radialGradient id="a3" cx="52%" cy="75%" r="48%">
      <stop offset="0" stop-color="#BDA7FF" stop-opacity="0.44"/>
      <stop offset="1" stop-color="#BDA7FF" stop-opacity="0"/>
    </radialGradient>
    <filter id="soft" x="-40%" y="-40%" width="180%" height="180%">
      <feGaussianBlur stdDeviation="18"/>
    </filter>
  </defs>
  <rect width="390" height="844" fill="url(#bg)"/>
  <rect width="390" height="844" fill="url(#a1)" filter="url(#soft)"/>
  <rect width="390" height="844" fill="url(#a2)" filter="url(#soft)"/>
  <rect width="390" height="844" fill="url(#a3)" filter="url(#soft)"/>

  <text x="30" y="72" fill="#10161D" font-family="JetBrains Mono, monospace" font-size="24" font-weight="800">‹</text>
  <text x="72" y="72" fill="#10161D" font-family="JetBrains Mono, monospace" font-size="17" font-weight="900">通话模式</text>
  <rect x="280" y="48" width="76" height="34" rx="17" fill="#FFFFFF" fill-opacity="0.68" stroke="#C7D0DA"/>
  <circle cx="298" cy="65" r="5" fill="#0DAA61"/>
  <text x="312" y="69" fill="#1A2430" font-family="JetBrains Mono, monospace" font-size="11" font-weight="900">LIVE</text>

  <text x="36" y="142" fill="#536170" font-family="JetBrains Mono, monospace" font-size="10" font-weight="900">LISTENING</text>
  <text x="34" y="184" fill="#10161D" font-family="JetBrains Mono, monospace" font-size="38" font-weight="900">我在听</text>
  <text x="36" y="213" fill="#536170" font-family="JetBrains Mono, monospace" font-size="12">说完停顿后自动发送，也可以直接打断 AI 播报</text>

  <g transform="translate(195 380)">
    <circle r="126" fill="#FFFFFF" fill-opacity="0.44" stroke="#FFFFFF" stroke-width="2"/>
    <circle r="94" fill="#FFFFFF" fill-opacity="0.34" stroke="#DDE5EC"/>
    <path d="M-112 0 C-94 -58 -78 58 -60 0 C-42 -58 -26 58 -8 0 C10 -58 26 58 44 0 C62 -58 78 58 96 0 C114 -58 130 58 146 0" fill="none" stroke="#10161D" stroke-width="5.5" stroke-linecap="round"/>
    <path d="M-106 34 C-72 88 72 88 106 34" fill="none" stroke="#006CFF" stroke-width="4" stroke-linecap="round" opacity="0.82"/>
    <circle r="35" fill="#B2FF2E" stroke="#10161D" stroke-width="2"/>
  </g>

  <rect x="28" y="572" width="334" height="106" rx="24" fill="#FFFFFF" fill-opacity="0.72" stroke="#D5DEE6"/>
  <text x="52" y="608" fill="#006CFF" font-family="JetBrains Mono, monospace" font-size="11" font-weight="900">实时字幕</text>
  <text x="52" y="640" fill="#10161D" font-family="JetBrains Mono, monospace" font-size="17" font-weight="900">正在把你的语音转成输入...</text>
  <text x="52" y="665" fill="#536170" font-family="JetBrains Mono, monospace" font-size="11">这版适合“清爽、高级、少压迫感”的移动端体验</text>

  <rect x="28" y="724" width="334" height="76" rx="26" fill="#FFFFFF" fill-opacity="0.76" stroke="#D5DEE6"/>
  <rect x="54" y="741" width="44" height="44" rx="16" fill="#F4F7FA" stroke="#CDD6E0"/>
  <text x="69" y="769" fill="#536170" font-family="JetBrains Mono, monospace" font-size="16">▤</text>
  <rect x="132" y="734" width="126" height="58" rx="22" fill="#10161D"/>
  <text x="169" y="770" fill="#B2FF2E" font-family="JetBrains Mono, monospace" font-size="14" font-weight="900">暂停听</text>
  <rect x="292" y="741" width="44" height="44" rx="16" fill="#FFECEC" stroke="#F2B9B9"/>
  <text x="308" y="769" fill="#D85C5C" font-family="JetBrains Mono, monospace" font-size="16">✕</text>

  <text x="35" y="828" fill="#748292" font-family="JetBrains Mono, monospace" font-size="10">V3-1 · Aurora Minimal：浅色、高级、亲和。Flutter: gradients + CustomPainter</text>
</svg>
