<svg xmlns="http://www.w3.org/2000/svg" width="390" height="844" viewBox="0 0 390 844">
  <defs>
    <linearGradient id="bg" x1="0" y1="0" x2="1" y2="1">
      <stop offset="0" stop-color="#05080C"/>
      <stop offset="0.46" stop-color="#0B1118"/>
      <stop offset="1" stop-color="#10151D"/>
    </linearGradient>
    <radialGradient id="glow1" cx="50%" cy="38%" r="48%">
      <stop offset="0" stop-color="#55D8FF" stop-opacity="0.48"/>
      <stop offset="0.42" stop-color="#55D8FF" stop-opacity="0.12"/>
      <stop offset="1" stop-color="#55D8FF" stop-opacity="0"/>
    </radialGradient>
    <radialGradient id="glow2" cx="42%" cy="48%" r="34%">
      <stop offset="0" stop-color="#B2FF2E" stop-opacity="0.46"/>
      <stop offset="1" stop-color="#B2FF2E" stop-opacity="0"/>
    </radialGradient>
    <linearGradient id="panel" x1="0" y1="0" x2="1" y2="1">
      <stop offset="0" stop-color="#FFFFFF" stop-opacity="0.16"/>
      <stop offset="1" stop-color="#FFFFFF" stop-opacity="0.06"/>
    </linearGradient>
    <filter id="blur" x="-50%" y="-50%" width="200%" height="200%">
      <feGaussianBlur stdDeviation="14"/>
    </filter>
  </defs>
  <rect width="390" height="844" fill="url(#bg)"/>
  <rect width="390" height="844" fill="url(#glow1)" filter="url(#blur)"/>
  <rect width="390" height="844" fill="url(#glow2)" filter="url(#blur)"/>

  <text x="30" y="70" fill="#E7EDF2" font-family="JetBrains Mono, monospace" font-size="24" font-weight="800">‹</text>
  <text x="72" y="70" fill="#E7EDF2" font-family="JetBrains Mono, monospace" font-size="17" font-weight="900">Live Voice</text>
  <rect x="276" y="46" width="82" height="34" rx="17" fill="#FFFFFF" fill-opacity="0.08" stroke="#FFFFFF" stroke-opacity="0.18"/>
  <text x="296" y="68" fill="#B2FF2E" font-family="JetBrains Mono, monospace" font-size="11" font-weight="900">ONLINE</text>

  <g transform="translate(195 342)">
    <path d="M0 -146 C82 -146 146 -82 146 0 C146 82 82 146 0 146 C-82 146 -146 82 -146 0 C-146 -82 -82 -146 0 -146Z" fill="url(#panel)" stroke="#FFFFFF" stroke-opacity="0.20"/>
    <path d="M-98 -36 C-74 -104 74 -104 98 -36" fill="none" stroke="#55D8FF" stroke-width="3.5" stroke-linecap="round" opacity="0.76"/>
    <path d="M-112 0 C-94 -54 -78 54 -60 0 C-42 -54 -26 54 -8 0 C10 -54 26 54 44 0 C62 -54 78 54 96 0 C114 -54 130 54 146 0" fill="none" stroke="#F4FAFF" stroke-width="5.5" stroke-linecap="round"/>
    <path d="M-98 40 C-74 104 74 104 98 40" fill="none" stroke="#B2FF2E" stroke-width="4" stroke-linecap="round" opacity="0.74"/>
    <circle r="42" fill="#FFFFFF" fill-opacity="0.12" stroke="#B2FF2E" stroke-width="2"/>
    <circle r="16" fill="#B2FF2E"/>
  </g>

  <text x="52" y="526" fill="#F4FAFF" font-family="JetBrains Mono, monospace" font-size="30" font-weight="900">Listening</text>
  <text x="52" y="556" fill="#9AA9B8" font-family="JetBrains Mono, monospace" font-size="12">The call stays focused, calm, and responsive.</text>

  <rect x="30" y="592" width="330" height="102" rx="24" fill="url(#panel)" stroke="#FFFFFF" stroke-opacity="0.18"/>
  <text x="54" y="628" fill="#55D8FF" font-family="JetBrains Mono, monospace" font-size="11" font-weight="900">CAPTION</text>
  <text x="54" y="660" fill="#E7EDF2" font-family="JetBrains Mono, monospace" font-size="16" font-weight="900">这版把字幕做成轻玻璃层，</text>
  <text x="54" y="684" fill="#E7EDF2" font-family="JetBrains Mono, monospace" font-size="16" font-weight="900">主视觉集中在声场核心。</text>

  <rect x="32" y="732" width="326" height="60" rx="24" fill="#FFFFFF" fill-opacity="0.08" stroke="#FFFFFF" stroke-opacity="0.16"/>
  <rect x="54" y="746" width="42" height="32" rx="12" fill="#FFFFFF" fill-opacity="0.08" stroke="#FFFFFF" stroke-opacity="0.16"/>
  <text x="68" y="767" fill="#D7DEE5" font-family="JetBrains Mono, monospace" font-size="14">▤</text>
  <rect x="128" y="724" width="134" height="58" rx="22" fill="#B2FF2E"/>
  <text x="162" y="759" fill="#09110A" font-family="JetBrains Mono, monospace" font-size="13" font-weight="900">Stop listen</text>
  <rect x="294" y="746" width="42" height="32" rx="12" fill="#FF7A7A" fill-opacity="0.16" stroke="#FF7A7A" stroke-opacity="0.38"/>
  <text x="308" y="767" fill="#FF7A7A" font-family="JetBrains Mono, monospace" font-size="14">✕</text>

  <text x="35" y="828" fill="#7F92A3" font-family="JetBrains Mono, monospace" font-size="10">V3-2 · Dark Liquid Glass：暗色精致版。Flutter: Stack + glass panels</text>
</svg>
