<svg xmlns="http://www.w3.org/2000/svg" width="390" height="844" viewBox="0 0 390 844">
  <defs>
    <linearGradient id="bg" x1="0" y1="0" x2="0" y2="1">
      <stop offset="0" stop-color="#151A20"/>
      <stop offset="0.7" stop-color="#0E1319"/>
      <stop offset="1" stop-color="#080B0F"/>
    </linearGradient>
    <linearGradient id="card" x1="0" y1="0" x2="1" y2="1">
      <stop offset="0" stop-color="#1D252E"/>
      <stop offset="1" stop-color="#121820"/>
    </linearGradient>
  </defs>
  <rect width="390" height="844" fill="url(#bg)"/>

  <text x="30" y="70" fill="#E7EDF2" font-family="JetBrains Mono, monospace" font-size="24" font-weight="800">‹</text>
  <text x="72" y="70" fill="#E7EDF2" font-family="JetBrains Mono, monospace" font-size="17" font-weight="900">通话模式</text>
  <rect x="288" y="48" width="68" height="32" rx="10" fill="#1D252E" stroke="#31404D"/>
  <text x="306" y="68" fill="#9AA9B8" font-family="JetBrains Mono, monospace" font-size="11" font-weight="900">04:18</text>

  <text x="32" y="142" fill="#7F92A3" font-family="JetBrains Mono, monospace" font-size="10" font-weight="900">STATE</text>
  <text x="32" y="188" fill="#E7EDF2" font-family="JetBrains Mono, monospace" font-size="40" font-weight="900">AI 正在回复</text>
  <text x="34" y="218" fill="#9AA9B8" font-family="JetBrains Mono, monospace" font-size="12">你开口后会打断当前播报并进入新一轮</text>

  <rect x="28" y="260" width="334" height="250" rx="28" fill="url(#card)" stroke="#31404D"/>
  <g transform="translate(195 385)">
    <rect x="-112" y="-76" width="224" height="152" rx="24" fill="#0E1319" stroke="#27313C"/>
    <path d="M-78 0 C-64 -44 -50 44 -36 0 C-22 -44 -8 44 6 0 C20 -44 34 44 48 0 C62 -44 76 44 90 0" fill="none" stroke="#B2FF2E" stroke-width="7" stroke-linecap="round"/>
    <path d="M-92 54 C-52 92 52 92 92 54" fill="none" stroke="#6EC7FF" stroke-width="4" stroke-linecap="round" opacity="0.66"/>
    <circle cx="-100" cy="-60" r="7" fill="#B2FF2E"/>
    <circle cx="100" cy="-60" r="7" fill="#6EC7FF"/>
  </g>

  <rect x="28" y="536" width="334" height="86" rx="18" fill="#151B22" stroke="#31404D"/>
  <text x="52" y="568" fill="#B2FF2E" font-family="JetBrains Mono, monospace" font-size="11" font-weight="900">ASSISTANT</text>
  <text x="52" y="598" fill="#E7EDF2" font-family="JetBrains Mono, monospace" font-size="15" font-weight="900">我已经完成第一版实现，接下来会补测试...</text>

  <rect x="28" y="646" width="334" height="56" rx="18" fill="#10161D" stroke="#27313C"/>
  <rect x="48" y="662" width="84" height="24" rx="12" fill="#132018" stroke="#285641"/>
  <text x="64" y="679" fill="#E5FFF1" font-family="JetBrains Mono, monospace" font-size="10" font-weight="900">播报中</text>
  <rect x="144" y="662" width="98" height="24" rx="12" fill="#102C3A" stroke="#357DA4"/>
  <text x="160" y="679" fill="#D7DEE5" font-family="JetBrains Mono, monospace" font-size="10" font-weight="900">可语音打断</text>

  <rect x="18" y="724" width="354" height="94" rx="30" fill="#121820" stroke="#31404D"/>
  <rect x="46" y="746" width="46" height="46" rx="15" fill="#1D252E" stroke="#31404D"/>
  <text x="61" y="775" fill="#D7DEE5" font-family="JetBrains Mono, monospace" font-size="17">▤</text>
  <rect x="122" y="736" width="146" height="60" rx="22" fill="#FF7A7A"/>
  <text x="166" y="772" fill="#23090A" font-family="JetBrains Mono, monospace" font-size="14" font-weight="900">打断</text>
  <rect x="298" y="746" width="46" height="46" rx="15" fill="#1D252E" stroke="#31404D"/>
  <text x="314" y="775" fill="#D7DEE5" font-family="JetBrains Mono, monospace" font-size="17">✕</text>

  <text x="35" y="836" fill="#7F92A3" font-family="JetBrains Mono, monospace" font-size="10">V3-3 · Editorial Console：更像成熟 App 的通话控制台</text>
</svg>
