<svg width="1170" height="2532" viewBox="0 0 1170 2532" fill="none" xmlns="http://www.w3.org/2000/svg">
  <defs>
    <radialGradient id="bgGlowA" cx="0" cy="0" r="1" gradientUnits="userSpaceOnUse" gradientTransform="translate(842 366) rotate(116) scale(775 522)">
      <stop stop-color="#9AEF2F" stop-opacity="0.23"/>
      <stop offset="0.46" stop-color="#6EC7FF" stop-opacity="0.14"/>
      <stop offset="1" stop-color="#0E1319" stop-opacity="0"/>
    </radialGradient>
    <radialGradient id="bgGlowB" cx="0" cy="0" r="1" gradientUnits="userSpaceOnUse" gradientTransform="translate(164 1896) rotate(-55) scale(678 498)">
      <stop stop-color="#A78BFA" stop-opacity="0.18"/>
      <stop offset="0.52" stop-color="#6EC7FF" stop-opacity="0.1"/>
      <stop offset="1" stop-color="#0E1319" stop-opacity="0"/>
    </radialGradient>
    <radialGradient id="orbCore" cx="0" cy="0" r="1" gradientUnits="userSpaceOnUse" gradientTransform="translate(585 894) rotate(90) scale(278)">
      <stop stop-color="#F2FFE6"/>
      <stop offset="0.2" stop-color="#B9FF43"/>
      <stop offset="0.56" stop-color="#2E5B47"/>
      <stop offset="1" stop-color="#111B22"/>
    </radialGradient>
    <radialGradient id="orbShell" cx="0" cy="0" r="1" gradientUnits="userSpaceOnUse" gradientTransform="translate(585 894) rotate(90) scale(465)">
      <stop stop-color="#A3FF12" stop-opacity="0.16"/>
      <stop offset="0.5" stop-color="#6EC7FF" stop-opacity="0.08"/>
      <stop offset="1" stop-color="#A78BFA" stop-opacity="0"/>
    </radialGradient>
    <linearGradient id="panelGradient" x1="126" y1="1320" x2="1044" y2="1836" gradientUnits="userSpaceOnUse">
      <stop stop-color="#17202A"/>
      <stop offset="1" stop-color="#10171E"/>
    </linearGradient>
    <linearGradient id="controlGradient" x1="238" y1="2056" x2="932" y2="2318" gradientUnits="userSpaceOnUse">
      <stop stop-color="#171F28"/>
      <stop offset="1" stop-color="#111820"/>
    </linearGradient>
    <filter id="softShadow" x="-40%" y="-40%" width="180%" height="180%" color-interpolation-filters="sRGB">
      <feDropShadow dx="0" dy="30" stdDeviation="42" flood-color="#020609" flood-opacity="0.45"/>
    </filter>
    <filter id="glow" x="-70%" y="-70%" width="240%" height="240%" color-interpolation-filters="sRGB">
      <feGaussianBlur stdDeviation="34" result="blur"/>
      <feColorMatrix in="blur" type="matrix" values="0 0 0 0 0.52 0 0 0 0 1 0 0 0 0 0.28 0 0 0 0.95 0"/>
      <feBlend in2="SourceGraphic" mode="screen"/>
    </filter>
    <style>
      .screen { fill: #0E1319; }
      .stroke { stroke: #2A3642; }
      .strokeStrong { stroke: #3A4B59; }
      .text { fill: #E7EDF2; font-family: Inter, "Noto Sans CJK SC", "Microsoft YaHei", Arial, sans-serif; }
      .muted { fill: #94A5B5; font-family: Inter, "Noto Sans CJK SC", "Microsoft YaHei", Arial, sans-serif; }
      .soft { fill: #C9D4DE; font-family: Inter, "Noto Sans CJK SC", "Microsoft YaHei", Arial, sans-serif; }
      .mono { fill: #A3FF12; font-family: "SF Mono", "Roboto Mono", monospace; }
    </style>
  </defs>

  <rect class="screen" width="1170" height="2532"/>
  <rect width="1170" height="2532" fill="url(#bgGlowA)"/>
  <rect width="1170" height="2532" fill="url(#bgGlowB)"/>

  <g opacity="0.42">
    <path d="M-64 460C156 378 314 393 486 506C672 628 842 648 1236 500" stroke="#27313C" stroke-width="2"/>
    <path d="M-70 538C148 457 320 476 500 596C690 724 860 736 1236 604" stroke="#27313C" stroke-width="2"/>
    <path d="M-76 616C139 537 326 558 514 686C708 818 876 824 1238 708" stroke="#27313C" stroke-width="2"/>
  </g>

  <g transform="translate(72 78)">
    <rect x="0" y="0" width="1026" height="96" rx="36" fill="#111820" fill-opacity="0.76" stroke="#26323D" stroke-width="2"/>
    <circle cx="48" cy="48" r="24" fill="#171F28" stroke="#33414E" stroke-width="2"/>
    <path d="M56 34L42 48L56 62" stroke="#E7EDF2" stroke-width="6" stroke-linecap="round" stroke-linejoin="round"/>
    <text class="text" x="102" y="58" font-size="32" font-weight="800" letter-spacing="0">语音通话</text>
    <rect x="826" y="26" width="148" height="44" rx="22" fill="#14241C" stroke="#3B6335" stroke-width="2"/>
    <circle cx="854" cy="48" r="8" fill="#A3FF12"/>
    <text class="mono" x="876" y="55" font-size="22" font-weight="800">LIVE</text>
  </g>

  <g transform="translate(128 252)">
    <text class="soft" x="0" y="52" font-size="30" font-weight="700">通话模式</text>
    <text class="text" x="0" y="124" font-size="62" font-weight="850" letter-spacing="0">正在听你说话</text>
    <text class="muted" x="0" y="178" font-size="28" font-weight="500">可随时打断回复，系统会保留上下文继续对话</text>
  </g>

  <g transform="translate(0 0)">
    <circle cx="585" cy="894" r="465" fill="url(#orbShell)"/>
    <circle cx="585" cy="894" r="356" fill="#0F151B" fill-opacity="0.45" stroke="#293744" stroke-width="2"/>
    <circle cx="585" cy="894" r="276" fill="url(#orbCore)" filter="url(#glow)"/>
    <circle cx="585" cy="894" r="276" stroke="#B9FF43" stroke-opacity="0.58" stroke-width="3"/>
    <circle cx="585" cy="894" r="338" stroke="#6EC7FF" stroke-opacity="0.16" stroke-width="4"/>
    <circle cx="585" cy="894" r="414" stroke="#A3FF12" stroke-opacity="0.14" stroke-width="3"/>

    <g stroke-linecap="round" filter="url(#softShadow)">
      <rect x="426" y="815" width="24" height="158" rx="12" fill="#D7FF7D"/>
      <rect x="474" y="766" width="24" height="256" rx="12" fill="#B9FF43"/>
      <rect x="522" y="708" width="24" height="372" rx="12" fill="#F1FFD5"/>
      <rect x="570" y="742" width="30" height="304" rx="15" fill="#FFFFFF"/>
      <rect x="624" y="684" width="24" height="420" rx="12" fill="#B9FF43"/>
      <rect x="672" y="774" width="24" height="240" rx="12" fill="#A3FF12"/>
      <rect x="720" y="830" width="24" height="128" rx="12" fill="#6EC7FF"/>
    </g>
  </g>

  <g transform="translate(126 1266)" filter="url(#softShadow)">
    <rect width="918" height="456" rx="48" fill="url(#panelGradient)" stroke="#2B3844" stroke-width="2"/>
    <rect x="34" y="34" width="164" height="44" rx="22" fill="#13241B" stroke="#385F35" stroke-width="2"/>
    <circle cx="64" cy="56" r="8" fill="#A3FF12"/>
    <text class="mono" x="84" y="64" font-size="22" font-weight="800">REALTIME</text>

    <text class="text" x="42" y="148" font-size="38" font-weight="850">“帮我整理一下刚才的方案，然后继续。”</text>
    <text class="muted" x="42" y="210" font-size="26" font-weight="500">正在识别最后一句，停顿后自动发送</text>

    <g transform="translate(42 270)">
      <rect width="834" height="112" rx="28" fill="#0F151B" stroke="#293744" stroke-width="2"/>
      <path d="M44 56C74 20 96 92 126 56C156 20 178 92 208 56C238 20 260 92 290 56C320 20 342 92 372 56C402 20 424 92 454 56" stroke="#6EC7FF" stroke-width="7" stroke-linecap="round"/>
      <text class="soft" x="514" y="50" font-size="24" font-weight="750">智能降噪</text>
      <text class="muted" x="514" y="84" font-size="22" font-weight="500">环境声低，语音清晰</text>
      <rect x="746" y="34" width="48" height="48" rx="24" fill="#18242E" stroke="#3A4B59" stroke-width="2"/>
      <path d="M759 58H781M770 47V69" stroke="#E7EDF2" stroke-width="5" stroke-linecap="round"/>
    </g>
  </g>

  <g transform="translate(126 1782)">
    <rect width="918" height="188" rx="44" fill="#101820" fill-opacity="0.72" stroke="#283540" stroke-width="2"/>
    <g transform="translate(42 42)">
      <rect width="104" height="104" rx="32" fill="#17212A" stroke="#31404D" stroke-width="2"/>
      <path d="M35 55C43 43 60 43 68 55M34 72C46 86 59 86 72 72" stroke="#A3FF12" stroke-width="6" stroke-linecap="round"/>
      <text class="soft" x="136" y="38" font-size="27" font-weight="800">助手正在准备回复</text>
      <text class="muted" x="136" y="82" font-size="24" font-weight="500">已接收 12 秒语音，预计 1.4 秒后开始播报</text>
    </g>
  </g>

  <g transform="translate(174 2052)" filter="url(#softShadow)">
    <rect width="822" height="292" rx="64" fill="url(#controlGradient)" stroke="#293743" stroke-width="2"/>

    <g transform="translate(70 62)">
      <rect width="146" height="146" rx="44" fill="#151F29" stroke="#33414E" stroke-width="2"/>
      <path d="M47 51H99M47 73H99M47 95H79" stroke="#D7DEE5" stroke-width="8" stroke-linecap="round"/>
      <text class="muted" x="32" y="198" font-size="22" font-weight="700">字幕</text>
    </g>

    <g transform="translate(338 38)">
      <circle cx="73" cy="73" r="73" fill="#A3FF12"/>
      <path d="M73 36C55 36 45 49 45 68V78C45 97 56 110 73 110C90 110 101 97 101 78V68C101 49 91 36 73 36Z" fill="#09110A"/>
      <path d="M33 80C33 106 49 128 73 128C97 128 113 106 113 80M73 128V152" stroke="#09110A" stroke-width="10" stroke-linecap="round"/>
      <text class="text" x="22" y="222" font-size="24" font-weight="850">按住说话</text>
    </g>

    <g transform="translate(606 62)">
      <rect width="146" height="146" rx="44" fill="#2A1619" stroke="#6F343B" stroke-width="2"/>
      <path d="M45 88C61 69 85 69 101 88M51 70L36 55M95 70L110 55" stroke="#FF7A7A" stroke-width="9" stroke-linecap="round"/>
      <text class="muted" x="31" y="198" font-size="22" font-weight="700">挂断</text>
    </g>
  </g>

  <g transform="translate(300 2400)" opacity="0.72">
    <rect width="570" height="7" rx="3.5" fill="#E7EDF2"/>
  </g>
</svg>
