<svg width="1024" height="1024" viewBox="0 0 1024 1024" fill="none" xmlns="http://www.w3.org/2000/svg">
  <defs>
    <linearGradient id="bg" x1="0" y1="0" x2="1024" y2="1024" gradientUnits="userSpaceOnUse">
      <stop offset="0" stop-color="#050914"/>
      <stop offset="0.55" stop-color="#081321"/>
      <stop offset="1" stop-color="#03050B"/>
    </linearGradient>

    <radialGradient id="backGlow" cx="0.5" cy="0.42" r="0.55">
      <stop offset="0" stop-color="#6FA8FF" stop-opacity="0.20"/>
      <stop offset="0.34" stop-color="#7E74FF" stop-opacity="0.12"/>
      <stop offset="1" stop-color="#000000" stop-opacity="0"/>
    </radialGradient>

    <radialGradient id="orbBody" cx="0.38" cy="0.30" r="0.78">
      <stop offset="0" stop-color="#EAF7FF"/>
      <stop offset="0.24" stop-color="#B9D8FF"/>
      <stop offset="0.52" stop-color="#537FF0"/>
      <stop offset="0.78" stop-color="#1E3CBA"/>
      <stop offset="1" stop-color="#0A1234"/>
    </radialGradient>

    <radialGradient id="shellFill" cx="0.36" cy="0.28" r="0.90">
      <stop offset="0" stop-color="#FFFFFF" stop-opacity="0.06"/>
      <stop offset="0.50" stop-color="#9BD6FF" stop-opacity="0.10"/>
      <stop offset="0.76" stop-color="#7D83FF" stop-opacity="0.08"/>
      <stop offset="1" stop-color="#FFFFFF" stop-opacity="0"/>
    </radialGradient>

    <linearGradient id="shellStroke" x1="300" y1="286" x2="714" y2="734" gradientUnits="userSpaceOnUse">
      <stop offset="0" stop-color="#FFFFFF"/>
      <stop offset="0.22" stop-color="#DDF8FF"/>
      <stop offset="0.50" stop-color="#7CC8FF"/>
      <stop offset="0.76" stop-color="#8A73FF"/>
      <stop offset="1" stop-color="#FFFFFF"/>
    </linearGradient>

    <linearGradient id="shellEcho" x1="256" y1="256" x2="768" y2="768" gradientUnits="userSpaceOnUse">
      <stop offset="0" stop-color="#74B7FF" stop-opacity="0"/>
      <stop offset="0.35" stop-color="#5FA7FF" stop-opacity="0.32"/>
      <stop offset="0.65" stop-color="#9C8CFF" stop-opacity="0.20"/>
      <stop offset="1" stop-color="#74B7FF" stop-opacity="0"/>
    </linearGradient>

    <linearGradient id="topHighlight" x1="326" y1="286" x2="694" y2="404" gradientUnits="userSpaceOnUse">
      <stop offset="0" stop-color="#FFFFFF" stop-opacity="0.92"/>
      <stop offset="0.28" stop-color="#D8FAFF" stop-opacity="0.72"/>
      <stop offset="0.62" stop-color="#7ECBFF" stop-opacity="0.34"/>
      <stop offset="1" stop-color="#FFFFFF" stop-opacity="0"/>
    </linearGradient>

    <linearGradient id="innerRing" x1="364" y1="372" x2="660" y2="652" gradientUnits="userSpaceOnUse">
      <stop offset="0" stop-color="#FFFFFF" stop-opacity="0"/>
      <stop offset="0.22" stop-color="#E9FBFF" stop-opacity="0.60"/>
      <stop offset="0.50" stop-color="#79CFFF" stop-opacity="0.78"/>
      <stop offset="0.78" stop-color="#8E72FF" stop-opacity="0.32"/>
      <stop offset="1" stop-color="#FFFFFF" stop-opacity="0"/>
    </linearGradient>

    <radialGradient id="fogA" cx="0.42" cy="0.36" r="0.70">
      <stop offset="0" stop-color="#FFFFFF" stop-opacity="0.38"/>
      <stop offset="0.34" stop-color="#DDFBFF" stop-opacity="0.18"/>
      <stop offset="0.68" stop-color="#6FB8FF" stop-opacity="0.10"/>
      <stop offset="1" stop-color="#000000" stop-opacity="0"/>
    </radialGradient>

    <radialGradient id="fogB" cx="0.45" cy="0.38" r="0.70">
      <stop offset="0" stop-color="#7FCBFF" stop-opacity="0.22"/>
      <stop offset="0.34" stop-color="#EAF7FF" stop-opacity="0.14"/>
      <stop offset="0.72" stop-color="#8B7BFF" stop-opacity="0.08"/>
      <stop offset="1" stop-color="#000000" stop-opacity="0"/>
    </radialGradient>

    <radialGradient id="fogC" cx="0.48" cy="0.46" r="0.72">
      <stop offset="0" stop-color="#6EC7FF" stop-opacity="0.20"/>
      <stop offset="0.40" stop-color="#F8FEFF" stop-opacity="0.11"/>
      <stop offset="0.76" stop-color="#5E74F6" stop-opacity="0.08"/>
      <stop offset="1" stop-color="#000000" stop-opacity="0"/>
    </radialGradient>

    <radialGradient id="fogD" cx="0.40" cy="0.42" r="0.70">
      <stop offset="0" stop-color="#D6BFFF" stop-opacity="0.18"/>
      <stop offset="0.36" stop-color="#93D4FF" stop-opacity="0.12"/>
      <stop offset="0.74" stop-color="#4F69E8" stop-opacity="0.08"/>
      <stop offset="1" stop-color="#000000" stop-opacity="0"/>
    </radialGradient>

    <radialGradient id="centerCore" cx="0.40" cy="0.36" r="0.82">
      <stop offset="0" stop-color="#FFFFFF" stop-opacity="0.86"/>
      <stop offset="0.28" stop-color="#E1FAFF" stop-opacity="0.56"/>
      <stop offset="0.58" stop-color="#84CFFF" stop-opacity="0.18"/>
      <stop offset="1" stop-color="#000000" stop-opacity="0"/>
    </radialGradient>

    <filter id="blur18" x="-40%" y="-40%" width="180%" height="180%">
      <feGaussianBlur stdDeviation="18"/>
    </filter>
    <filter id="blur28" x="-45%" y="-45%" width="190%" height="190%">
      <feGaussianBlur stdDeviation="28"/>
    </filter>
    <filter id="blur42" x="-50%" y="-50%" width="200%" height="200%">
      <feGaussianBlur stdDeviation="42"/>
    </filter>
    <filter id="blur64" x="-60%" y="-60%" width="220%" height="220%">
      <feGaussianBlur stdDeviation="64"/>
    </filter>

    <clipPath id="orbClip">
      <circle cx="512" cy="512" r="256"/>
    </clipPath>
  </defs>

  <rect width="1024" height="1024" fill="url(#bg)"/>
  <circle cx="512" cy="472" r="360" fill="url(#backGlow)" filter="url(#blur64)"/>
  <circle cx="512" cy="512" r="300" fill="#5D78FF" opacity="0.06" filter="url(#blur64)"/>
  <circle cx="512" cy="512" r="342" fill="none" stroke="#6FAEFF" stroke-opacity="0.16" stroke-width="48" filter="url(#blur42)"/>

  <g opacity="0.98">
    <circle cx="512" cy="512" r="256" fill="url(#shellFill)"/>
    <circle cx="512" cy="512" r="252" fill="url(#orbBody)"/>
    <circle cx="512" cy="512" r="252" fill="none" stroke="url(#shellStroke)" stroke-width="12" opacity="0.92"/>
    <circle cx="512" cy="512" r="262" fill="none" stroke="url(#shellEcho)" stroke-width="14" filter="url(#blur28)" opacity="0.78"/>

    <path d="M334 366C396 286 504 260 604 278C659 288 700 315 718 348C677 342 631 338 582 343C489 351 423 372 367 398C343 409 323 383 334 366Z"
          fill="url(#topHighlight)" filter="url(#blur18)"/>

    <circle cx="512" cy="514" r="180" fill="none" stroke="url(#innerRing)" stroke-width="8" opacity="0.78" filter="url(#blur18)"/>
  </g>

  <g clip-path="url(#orbClip)">
    <rect x="256" y="256" width="512" height="512" fill="#081332"/>

    <ellipse cx="468" cy="458" rx="180" ry="124" fill="url(#fogA)" filter="url(#blur42)"/>
    <ellipse cx="612" cy="492" rx="164" ry="112" fill="url(#fogB)" filter="url(#blur42)"/>
    <ellipse cx="432" cy="588" rx="196" ry="132" fill="url(#fogC)" filter="url(#blur42)"/>
    <ellipse cx="564" cy="632" rx="146" ry="100" fill="url(#fogD)" filter="url(#blur42)"/>

    <path d="M330 418C393 334 510 316 596 342C657 361 700 402 716 454C674 430 622 420 562 424C480 429 422 450 366 478C341 491 320 441 330 418Z"
          fill="#DDFBFF" opacity="0.12" filter="url(#blur28)"/>

    <ellipse cx="510" cy="542" rx="118" ry="88" fill="url(#centerCore)" filter="url(#blur28)" opacity="0.46"/>
    <ellipse cx="492" cy="486" rx="56" ry="40" fill="#FFFFFF" opacity="0.20" filter="url(#blur18)"/>
    <ellipse cx="536" cy="478" rx="68" ry="46" fill="#8AD9FF" opacity="0.12" filter="url(#blur18)"/>
    <ellipse cx="470" cy="618" rx="160" ry="100" fill="#0E1F88" opacity="0.12" filter="url(#blur42)"/>
    <ellipse cx="556" cy="642" rx="140" ry="82" fill="#7B6BFF" opacity="0.10" filter="url(#blur42)"/>
  </g>

  <circle cx="512" cy="512" r="262" fill="none" stroke="#C8F4FF" stroke-opacity="0.10" stroke-width="6" filter="url(#blur18)"/>
  <circle cx="512" cy="512" r="310" fill="none" stroke="#7BB7FF" stroke-opacity="0.16" stroke-width="22" filter="url(#blur42)"/>
  <circle cx="512" cy="512" r="284" fill="none" stroke="#9C84FF" stroke-opacity="0.10" stroke-width="12" filter="url(#blur28)"/>
</svg>
