<svg width="1170" height="2532" viewBox="0 0 1170 2532" fill="none" xmlns="http://www.w3.org/2000/svg">
  <defs>
    <radialGradient id="bgGlowA" cx="0" cy="0" r="1" gradientUnits="userSpaceOnUse" gradientTransform="translate(834 328) rotate(118) scale(780 520)">
      <stop stop-color="#B2FF2E" stop-opacity="0.34"/>
      <stop offset="0.48" stop-color="#66C8FF" stop-opacity="0.2"/>
      <stop offset="1" stop-color="#F3F0EA" stop-opacity="0"/>
    </radialGradient>
    <radialGradient id="bgGlowB" cx="0" cy="0" r="1" gradientUnits="userSpaceOnUse" gradientTransform="translate(148 1870) rotate(-56) scale(690 510)">
      <stop stop-color="#8B5CF6" stop-opacity="0.14"/>
      <stop offset="0.52" stop-color="#66C8FF" stop-opacity="0.12"/>
      <stop offset="1" stop-color="#F3F0EA" stop-opacity="0"/>
    </radialGradient>
    <radialGradient id="orbCore" cx="0" cy="0" r="1" gradientUnits="userSpaceOnUse" gradientTransform="translate(585 894) rotate(90) scale(278)">
      <stop stop-color="#FFFFFF"/>
      <stop offset="0.18" stop-color="#DFFF8B"/>
      <stop offset="0.56" stop-color="#77D8FF"/>
      <stop offset="1" stop-color="#EEF5F9"/>
    </radialGradient>
    <radialGradient id="orbShell" cx="0" cy="0" r="1" gradientUnits="userSpaceOnUse" gradientTransform="translate(585 894) rotate(90) scale(465)">
      <stop stop-color="#B2FF2E" stop-opacity="0.2"/>
      <stop offset="0.52" stop-color="#66C8FF" stop-opacity="0.13"/>
      <stop offset="1" stop-color="#8B5CF6" stop-opacity="0"/>
    </radialGradient>
    <linearGradient id="panelGradient" x1="126" y1="1320" x2="1044" y2="1836" gradientUnits="userSpaceOnUse">
      <stop stop-color="#FFFFFF"/>
      <stop offset="1" stop-color="#EEF3F7"/>
    </linearGradient>
    <linearGradient id="controlGradient" x1="238" y1="2056" x2="932" y2="2318" gradientUnits="userSpaceOnUse">
      <stop stop-color="#FFFFFF"/>
      <stop offset="1" stop-color="#ECF2F7"/>
    </linearGradient>
    <filter id="softShadow" x="-40%" y="-40%" width="180%" height="180%" color-interpolation-filters="sRGB">
      <feDropShadow dx="0" dy="30" stdDeviation="42" flood-color="#5B6876" flood-opacity="0.18"/>
    </filter>
    <filter id="glow" x="-70%" y="-70%" width="240%" height="240%" color-interpolation-filters="sRGB">
      <feGaussianBlur stdDeviation="26" result="blur"/>
      <feColorMatrix in="blur" type="matrix" values="0 0 0 0 0.42 0 0 0 0 0.88 0 0 0 0 1 0 0 0 0.52 0"/>
      <feBlend in2="SourceGraphic" mode="multiply"/>
    </filter>
    <style>
      .screen { fill: #F3F0EA; }
      .stroke { stroke: #CDD6E0; }
      .strokeStrong { stroke: #B9C5D0; }
      .text { fill: #10161D; font-family: Inter, "Noto Sans CJK SC", "Microsoft YaHei", Arial, sans-serif; }
      .muted { fill: #6C7A89; font-family: Inter, "Noto Sans CJK SC", "Microsoft YaHei", Arial, sans-serif; }
      .soft { fill: #273340; font-family: Inter, "Noto Sans CJK SC", "Microsoft YaHei", Arial, sans-serif; }
      .mono { fill: #2B7A12; font-family: "SF Mono", "Roboto Mono", monospace; }
    </style>
  </defs>

  <rect class="screen" width="1170" height="2532"/>
  <rect width="1170" height="2532" fill="url(#bgGlowA)"/>
  <rect width="1170" height="2532" fill="url(#bgGlowB)"/>

  <g opacity="0.38">
    <path d="M-64 460C156 378 314 393 486 506C672 628 842 648 1236 500" stroke="#CDD6E0" stroke-width="2"/>
    <path d="M-70 538C148 457 320 476 500 596C690 724 860 736 1236 604" stroke="#CDD6E0" stroke-width="2"/>
    <path d="M-76 616C139 537 326 558 514 686C708 818 876 824 1238 708" stroke="#CDD6E0" stroke-width="2"/>
  </g>

  <g transform="translate(72 78)">
    <rect x="0" y="0" width="1026" height="96" rx="36" fill="#FFFFFF" fill-opacity="0.82" stroke="#CDD6E0" stroke-width="2"/>
    <circle cx="48" cy="48" r="24" fill="#F1F5F8" stroke="#C7D0DA" stroke-width="2"/>
    <path d="M56 34L42 48L56 62" stroke="#10161D" stroke-width="6" stroke-linecap="round" stroke-linejoin="round"/>
    <text class="text" x="102" y="58" font-size="32" font-weight="800" letter-spacing="0">语音通话</text>
    <rect x="826" y="26" width="148" height="44" rx="22" fill="#F0FAE7" stroke="#9ACF69" stroke-width="2"/>
    <circle cx="854" cy="48" r="8" fill="#6BCB1D"/>
    <text class="mono" x="876" y="55" font-size="22" font-weight="800">LIVE</text>
  </g>

  <g transform="translate(128 252)">
    <text class="soft" x="0" y="52" font-size="30" font-weight="700">通话模式</text>
    <text class="text" x="0" y="124" font-size="62" font-weight="850" letter-spacing="0">正在听你说话</text>
    <text class="muted" x="0" y="178" font-size="28" font-weight="500">可随时打断回复，系统会保留上下文继续对话</text>
  </g>

  <g transform="translate(0 0)">
    <circle cx="585" cy="894" r="465" fill="url(#orbShell)"/>
    <circle cx="585" cy="894" r="356" fill="#FFFFFF" fill-opacity="0.52" stroke="#D1DAE3" stroke-width="2"/>
    <circle cx="585" cy="894" r="276" fill="url(#orbCore)" filter="url(#glow)"/>
    <circle cx="585" cy="894" r="276" stroke="#87CF23" stroke-opacity="0.56" stroke-width="3"/>
    <circle cx="585" cy="894" r="338" stroke="#1F8ED0" stroke-opacity="0.2" stroke-width="4"/>
    <circle cx="585" cy="894" r="414" stroke="#8CCF2D" stroke-opacity="0.2" stroke-width="3"/>

    <g stroke-linecap="round" filter="url(#softShadow)">
      <rect x="426" y="815" width="24" height="158" rx="12" fill="#7CC91F"/>
      <rect x="474" y="766" width="24" height="256" rx="12" fill="#90DD23"/>
      <rect x="522" y="708" width="24" height="372" rx="12" fill="#25303B"/>
      <rect x="570" y="742" width="30" height="304" rx="15" fill="#FFFFFF"/>
      <rect x="624" y="684" width="24" height="420" rx="12" fill="#7DDCFF"/>
      <rect x="672" y="774" width="24" height="240" rx="12" fill="#8B5CF6"/>
      <rect x="720" y="830" width="24" height="128" rx="12" fill="#1F8ED0"/>
    </g>
  </g>

  <g transform="translate(126 1266)" filter="url(#softShadow)">
    <rect width="918" height="456" rx="48" fill="url(#panelGradient)" stroke="#CDD6E0" stroke-width="2"/>
    <rect x="34" y="34" width="164" height="44" rx="22" fill="#EFFAE7" stroke="#9ACF69" stroke-width="2"/>
    <circle cx="64" cy="56" r="8" fill="#6BCB1D"/>
    <text class="mono" x="84" y="64" font-size="22" font-weight="800">REALTIME</text>

    <text class="text" x="42" y="148" font-size="38" font-weight="850">“帮我整理一下刚才的方案，然后继续。”</text>
    <text class="muted" x="42" y="210" font-size="26" font-weight="500">正在识别最后一句，停顿后自动发送</text>

    <g transform="translate(42 270)">
      <rect width="834" height="112" rx="28" fill="#F4F8FB" stroke="#CDD6E0" stroke-width="2"/>
      <path d="M44 56C74 20 96 92 126 56C156 20 178 92 208 56C238 20 260 92 290 56C320 20 342 92 372 56C402 20 424 92 454 56" stroke="#1F8ED0" stroke-width="7" stroke-linecap="round"/>
      <text class="soft" x="514" y="50" font-size="24" font-weight="750">智能降噪</text>
      <text class="muted" x="514" y="84" font-size="22" font-weight="500">环境声低，语音清晰</text>
      <rect x="746" y="34" width="48" height="48" rx="24" fill="#FFFFFF" stroke="#C7D0DA" stroke-width="2"/>
      <path d="M759 58H781M770 47V69" stroke="#10161D" stroke-width="5" stroke-linecap="round"/>
    </g>
  </g>

  <g transform="translate(126 1782)">
    <rect width="918" height="188" rx="44" fill="#FFFFFF" fill-opacity="0.72" stroke="#CDD6E0" stroke-width="2"/>
    <g transform="translate(42 42)">
      <rect width="104" height="104" rx="32" fill="#F1F7EC" stroke="#BFD3AD" stroke-width="2"/>
      <path d="M35 55C43 43 60 43 68 55M34 72C46 86 59 86 72 72" stroke="#5FB71D" stroke-width="6" stroke-linecap="round"/>
      <text class="soft" x="136" y="38" font-size="27" font-weight="800">助手正在准备回复</text>
      <text class="muted" x="136" y="82" font-size="24" font-weight="500">已接收 12 秒语音，预计 1.4 秒后开始播报</text>
    </g>
  </g>

  <g transform="translate(174 2052)" filter="url(#softShadow)">
    <rect width="822" height="292" rx="64" fill="url(#controlGradient)" stroke="#CDD6E0" stroke-width="2"/>

    <g transform="translate(70 62)">
      <rect width="146" height="146" rx="44" fill="#F5F8FB" stroke="#C7D0DA" stroke-width="2"/>
      <path d="M47 51H99M47 73H99M47 95H79" stroke="#273340" stroke-width="8" stroke-linecap="round"/>
      <text class="muted" x="32" y="198" font-size="22" font-weight="700">字幕</text>
    </g>

    <g transform="translate(338 38)">
      <circle cx="73" cy="73" r="73" fill="#B2FF2E"/>
      <path d="M73 36C55 36 45 49 45 68V78C45 97 56 110 73 110C90 110 101 97 101 78V68C101 49 91 36 73 36Z" fill="#0F151B"/>
      <path d="M33 80C33 106 49 128 73 128C97 128 113 106 113 80M73 128V152" stroke="#0F151B" stroke-width="10" stroke-linecap="round"/>
      <text class="text" x="22" y="222" font-size="24" font-weight="850">按住说话</text>
    </g>

    <g transform="translate(606 62)">
      <rect width="146" height="146" rx="44" fill="#FFF0F0" stroke="#F2B0B0" stroke-width="2"/>
      <path d="M45 88C61 69 85 69 101 88M51 70L36 55M95 70L110 55" stroke="#D85C5C" stroke-width="9" stroke-linecap="round"/>
      <text class="muted" x="31" y="198" font-size="22" font-weight="700">挂断</text>
    </g>
  </g>

  <g transform="translate(300 2400)" opacity="0.72">
    <rect width="570" height="7" rx="3.5" fill="#10161D"/>
  </g>
</svg>
